HIERARCHY
ROOT mug2
{
	OFFSET 0.000000 0.000000 0.000000
	CHANNELS 6 Xposition Yposition Zposition Yrotation Xrotation Zrotation
	End Site
	{
		OFFSET 0.000000 0.000000 0.000000
	}
}
MOTION
Frames: 175
Frame Time: 0.008333334
0.658036 5.456530 4.740610 68.605470 -1.184662 3.930346 
0.666479 5.434664 4.725713 68.456560 -1.006775 3.194886 
0.674782 5.413526 4.711563 68.255910 -0.784149 2.445917 
0.683219 5.392725 4.697991 68.149260 -0.669678 1.756943 
0.690567 5.373003 4.686015 68.019100 -0.454132 1.146650 
0.698071 5.353575 4.674666 67.971330 -0.411926 0.516414 
0.704405 5.334280 4.664125 67.833850 -0.256470 0.091220 
0.710300 5.316084 4.654026 67.757300 -0.218689 -0.451569 
0.716507 5.297040 4.644525 67.706820 -0.136231 -0.852783 
0.721857 5.278378 4.635571 67.570250 -0.088440 -1.237976 
0.727051 5.260773 4.626086 67.525830 -0.109375 -1.746704 
0.731689 5.242873 4.616750 67.466930 -0.006744 -2.186646 
0.737189 5.225564 4.607948 67.457980 -0.045136 -2.575958 
0.742511 5.208776 4.598598 67.334040 -0.112366 -3.129639 
0.747711 5.192365 4.589750 67.220480 -0.013641 -3.578674 
0.752171 5.176960 4.580825 67.106300 0.008687 -4.000732 
0.756172 5.161635 4.572527 66.929740 0.212649 -4.339264 
0.760636 5.147866 4.565181 66.869930 0.071943 -4.605469 
0.763828 5.133705 4.557846 66.698630 0.274814 -4.694641 
0.766797 5.121388 4.551143 66.573800 0.107279 -4.937286 
0.769412 5.109030 4.545589 66.392770 0.234472 -4.905487 
0.771778 5.098042 4.540341 66.247060 -0.017120 -4.922455 
0.773173 5.087433 4.535902 66.050130 0.050391 -4.777466 
0.775528 5.078514 4.532624 65.927340 -0.122894 -4.605957 
0.777531 5.071558 4.529082 65.765270 -0.137238 -4.443512 
0.779678 5.064837 4.526584 65.567160 -0.271271 -4.307617 
0.780981 5.059789 4.524070 65.327100 -0.207123 -4.101135 
0.783021 5.055731 4.522160 65.190380 -0.272125 -4.021179 
0.784235 5.053732 4.520441 65.045760 -0.253784 -3.904846 
0.785408 5.053471 4.519851 64.889790 -0.266510 -3.723846 
0.787143 5.054400 4.520798 64.829600 -0.284882 -3.431274 
0.787961 5.057726 4.522459 64.738080 -0.212921 -3.122345 
0.789052 5.063148 4.524617 64.705650 -0.054413 -2.678741 
0.790496 5.069789 4.528027 64.666740 0.057468 -2.358978 
0.791880 5.079494 4.531846 64.604610 0.144153 -1.975037 
0.793092 5.089647 4.535448 64.474880 0.373803 -1.508179 
0.794651 5.102148 4.539876 64.428020 0.383252 -1.159485 
0.795276 5.115219 4.545463 64.334370 0.398258 -0.636566 
0.794775 5.129338 4.551068 64.233630 0.394595 -0.047882 
0.793828 5.144676 4.557268 64.171720 0.356158 0.649910 
0.792619 5.160660 4.564131 64.081860 0.278420 1.427639 
0.790661 5.178752 4.571292 63.985710 0.238728 2.100592 
0.788743 5.198024 4.578388 63.887470 0.181088 2.824272 
0.787298 5.218493 4.586007 63.824300 0.139383 3.503266 
0.784949 5.240928 4.594768 63.680880 0.214090 4.181376 
0.783707 5.265337 4.603885 63.606130 0.144254 4.822656 
0.781580 5.290320 4.612701 63.552010 0.302025 5.551024 
0.779394 5.316628 4.622339 63.444450 0.405261 6.109804 
0.776959 5.344848 4.631526 63.289760 0.497247 6.579004 
0.774883 5.373319 4.642829 63.223550 0.648234 7.208708 
0.771719 5.402838 4.653143 63.110150 0.767063 7.837306 
0.768102 5.432931 4.665984 63.043400 0.833900 8.552522 
0.764110 5.463459 4.679161 62.998770 0.957157 9.347439 
0.759901 5.494161 4.693588 62.899750 0.954572 10.217060 
0.755117 5.524960 4.708682 62.839050 0.932037 11.243090 
0.750121 5.555699 4.724249 62.713050 0.963260 12.335320 
0.745322 5.586349 4.741601 62.682330 0.893694 13.484120 
0.739750 5.616179 4.758976 62.517150 0.794695 14.716590 
0.734196 5.646128 4.776766 62.409150 0.722551 15.983000 
0.728419 5.675612 4.794005 62.233880 0.617455 17.288420 
0.722210 5.703961 4.811831 62.024070 0.634873 18.695180 
0.718027 5.732842 4.830487 61.889960 0.459394 19.988910 
0.712463 5.761395 4.849329 61.639550 0.397217 21.462730 
0.707228 5.789750 4.868285 61.460710 0.459038 22.901090 
0.700224 5.817571 4.887455 61.133360 0.532304 24.592230 
0.694761 5.845597 4.907955 60.843460 0.332458 25.993980 
0.689125 5.872199 4.927907 60.616150 0.510272 27.698130 
0.683050 5.898829 4.948064 60.231240 0.471099 29.236550 
0.677284 5.924170 4.968011 59.974680 0.722622 30.918250 
0.672712 5.949347 4.988657 59.740450 0.793454 32.439170 
0.666522 5.974582 5.010184 59.318520 0.929641 33.879670 
0.661560 5.998743 5.032006 59.110920 1.131033 35.435630 
0.657019 6.022333 5.054381 58.965440 1.299591 37.021680 
0.651460 6.044909 5.077590 58.716530 1.535978 38.525030 
0.646151 6.066243 5.100528 58.616500 1.833252 39.979600 
0.641423 6.088128 5.122587 58.545790 2.087069 41.241200 
0.637676 6.108501 5.145381 58.553770 2.392315 42.459270 
0.633826 6.127810 5.167640 58.703820 2.859120 43.795420 
0.630957 6.146654 5.191708 58.813270 3.122221 44.907310 
0.627244 6.164862 5.215765 58.973450 3.286147 46.029430 
0.622656 6.181653 5.241280 58.988150 3.489905 47.125390 
0.617281 6.196401 5.266974 59.303420 3.779889 48.385800 
0.612188 6.210958 5.293181 59.520010 4.006865 49.586020 
0.607498 6.223018 5.318822 59.996510 4.472470 50.851300 
0.600013 6.239531 5.346774 59.521330 3.861982 51.158510 
0.597803 6.249318 5.370924 60.658720 4.644201 52.666890 
0.594015 6.260897 5.395585 61.109600 4.791622 53.254880 
0.589514 6.272066 5.417304 61.655550 5.066622 53.953880 
0.586130 6.281944 5.440545 62.018670 5.264121 54.361210 
0.582409 6.291590 5.461772 62.501300 5.323272 54.659270 
0.578851 6.301574 5.481576 62.868580 5.099013 54.737530 
0.575667 6.308720 5.500816 63.350310 5.131269 54.891690 
0.571615 6.314220 5.517435 63.885720 5.448397 55.118210 
0.568821 6.321528 5.534348 64.163450 5.062043 54.771640 
0.567193 6.326384 5.546642 64.930980 5.367523 54.755320 
0.565130 6.331633 5.557759 65.286420 5.480467 54.483980 
0.563941 6.337202 5.567315 65.576320 5.225863 53.866490 
0.563261 6.339646 5.573885 66.070220 5.547235 53.538730 
0.563803 6.343299 5.578899 66.328780 5.407379 52.769570 
0.564023 6.344523 5.581275 66.639690 5.533195 52.215170 
0.564545 6.344806 5.581114 66.845500 5.697996 51.662260 
0.565865 6.344195 5.579278 67.089290 5.832119 51.172490 
0.567463 6.341394 5.574274 67.589570 6.278052 50.738610 
0.569455 6.338962 5.570008 67.543880 6.153854 49.922920 
0.572021 6.334153 5.562969 67.585150 6.268483 49.214860 
0.575336 6.327265 5.553142 67.843700 6.658001 48.813880 
0.579462 6.320755 5.541720 67.954960 6.666007 48.003140 
0.584647 6.313210 5.529017 67.925770 6.772064 47.189620 
0.590115 6.304617 5.515146 67.789260 6.718046 46.124700 
0.597239 6.294266 5.499043 67.853820 6.840505 45.248160 
0.606457 6.280814 5.479568 68.192210 7.351823 44.589130 
0.614239 6.270572 5.460547 67.769490 7.087846 42.994700 
0.623844 6.256956 5.438706 67.684100 7.197710 41.763560 
0.633588 6.241987 5.415646 67.592630 7.322355 40.595790 
0.644022 6.224935 5.391941 67.646970 7.578950 39.446540 
0.653665 6.207160 5.367606 67.549030 7.795992 38.478960 
0.664837 6.187161 5.344189 67.385720 7.908222 37.310750 
0.676107 6.165887 5.320104 67.329900 8.060415 36.311530 
0.686994 6.142951 5.294895 67.280280 8.426079 35.358200 
0.699695 6.118880 5.269802 67.316760 8.580594 34.275440 
0.711045 6.092872 5.242104 67.103050 8.749226 33.004960 
0.724422 6.064705 5.213543 67.027370 8.978909 31.696220 
0.736949 6.034523 5.183174 66.847420 8.997561 30.308770 
0.750409 6.002173 5.150758 66.655080 9.112903 28.758740 
0.764212 5.967864 5.118566 66.269700 9.021667 27.012360 
0.777776 5.931589 5.084096 65.871680 8.940475 25.247570 
0.791103 5.892527 5.050549 65.517760 8.740485 23.530840 
0.805139 5.852233 5.017937 65.242940 8.671636 22.083650 
0.818810 5.811204 4.988118 64.815860 8.359270 20.589110 
0.831533 5.768744 4.958794 64.408810 8.332529 19.251350 
0.844584 5.725300 4.930356 64.103790 8.295492 18.097570 
0.856725 5.681209 4.902713 63.818100 8.477101 17.047180 
0.869483 5.637064 4.874981 63.548050 8.671599 15.973790 
0.883083 5.592983 4.847144 63.228760 8.842567 14.704310 
0.897165 5.548872 4.819946 62.915950 8.984222 13.292960 
0.911747 5.503623 4.791755 62.592660 9.176609 11.756830 
0.925785 5.457696 4.763803 62.192880 9.426784 10.199980 
0.940489 5.410296 4.735848 61.947090 9.784899 8.820518 
0.954512 5.362344 4.707840 61.632060 10.020780 7.320948 
0.967947 5.313666 4.679924 61.331590 10.230400 5.835696 
0.980632 5.264112 4.652584 60.972720 10.333520 4.432643 
0.992272 5.213713 4.625792 60.597850 10.483020 3.151487 
1.004117 5.163367 4.599029 60.301150 10.380670 1.949291 
1.015414 5.111630 4.573049 60.000970 10.327750 1.037840 
1.026284 5.060849 4.547230 59.643610 10.135750 -0.032623 
1.036480 5.008881 4.521545 59.305860 10.165210 -0.857971 
1.046855 4.957470 4.495778 58.959660 10.005130 -1.606079 
1.058223 4.906197 4.469686 58.554340 9.744996 -2.594299 
1.069279 4.854900 4.442961 58.063710 9.628866 -3.396973 
1.081193 4.804676 4.416311 57.596080 9.374889 -4.308441 
1.093240 4.753884 4.389569 57.123770 9.201728 -5.148193 
1.105258 4.704238 4.362689 56.543970 9.040027 -5.911285 
1.117746 4.654873 4.336226 55.909690 8.816873 -6.568329 
1.129842 4.606923 4.309883 55.328870 8.486341 -7.207275 
1.141250 4.559997 4.284537 54.678220 8.117548 -7.792389 
1.153028 4.513712 4.260684 54.041340 7.801100 -8.045410 
1.164157 4.468176 4.236855 53.399090 7.282911 -8.242126 
1.175374 4.423991 4.213293 52.791220 6.818940 -8.325958 
1.187123 4.381562 4.191203 52.038680 6.433782 -8.365082 
1.200799 4.340275 4.169149 51.367000 5.962179 -8.498077 
1.215008 4.299041 4.147410 50.694150 5.556101 -8.602264 
1.230314 4.260138 4.125872 49.932800 5.257141 -8.878662 
1.246013 4.222074 4.103891 49.145540 4.957950 -9.172394 
1.260946 4.186098 4.082065 48.350110 4.672449 -9.508759 
1.276809 4.151663 4.062155 47.677960 4.372764 -9.727081 
1.290779 4.119868 4.041858 46.901210 4.056038 -9.854218 
1.303645 4.089879 4.022759 46.277760 3.848031 -9.827209 
1.315268 4.061007 4.004820 45.663900 3.448128 -9.653503 
1.325797 4.033603 3.987849 45.144320 3.049419 -9.401825 
1.334161 4.006947 3.971675 44.536060 2.792384 -9.054138 
1.342488 3.982322 3.955582 44.167500 2.328182 -8.771271 
1.350089 3.958631 3.940856 43.744980 1.917373 -8.515900 
1.357749 3.936858 3.926997 43.398440 1.421376 -8.275848 
1.364599 3.916875 3.913295 43.093380 1.080843 -7.918304 
1.371459 3.898958 3.901839 42.895970 0.701604 -7.673706 
